<svg xmlns="http://www.w3.org/2000/svg" xmlns:xlink="http://www.w3.org/1999/xlink" width="1440" zoomAndPan="magnify" viewBox="0 0 1080 1079.999946" height="1440" preserveAspectRatio="xMidYMid meet" version="1.0"><defs><clipPath id="f3a4b96e73"><path d="M 362.789062 605.535156 L 457.535156 605.535156 L 457.535156 700.277344 L 362.789062 700.277344 Z M 362.789062 605.535156 " clip-rule="nonzero"/></clipPath><clipPath id="f35775c534"><path d="M 410.160156 605.535156 C 383.996094 605.535156 362.789062 626.742188 362.789062 652.90625 C 362.789062 679.070312 383.996094 700.277344 410.160156 700.277344 C 436.324219 700.277344 457.53125 679.070312 457.53125 652.90625 C 457.53125 626.742188 436.324219 605.535156 410.160156 605.535156 Z M 410.160156 605.535156 " clip-rule="nonzero"/></clipPath><clipPath id="f329d87846"><path d="M 0.789062 0.535156 L 95.535156 0.535156 L 95.535156 95.277344 L 0.789062 95.277344 Z M 0.789062 0.535156 " clip-rule="nonzero"/></clipPath><clipPath id="9fe84e77be"><path d="M 48.160156 0.535156 C 21.996094 0.535156 0.789062 21.742188 0.789062 47.90625 C 0.789062 74.070312 21.996094 95.277344 48.160156 95.277344 C 74.324219 95.277344 95.53125 74.070312 95.53125 47.90625 C 95.53125 21.742188 74.324219 0.535156 48.160156 0.535156 Z M 48.160156 0.535156 " clip-rule="nonzero"/></clipPath><clipPath id="8ca0329bc4"><rect x="0" width="96" y="0" height="96"/></clipPath><clipPath id="0b517fefe8"><path d="M 134.667969 744.65625 L 229.414062 744.65625 L 229.414062 839.402344 L 134.667969 839.402344 Z M 134.667969 744.65625 " clip-rule="nonzero"/></clipPath><clipPath id="edb2b143df"><path d="M 182.039062 744.65625 C 155.878906 744.65625 134.667969 765.867188 134.667969 792.027344 C 134.667969 818.191406 155.878906 839.402344 182.039062 839.402344 C 208.203125 839.402344 229.414062 818.191406 229.414062 792.027344 C 229.414062 765.867188 208.203125 744.65625 182.039062 744.65625 Z M 182.039062 744.65625 " clip-rule="nonzero"/></clipPath><clipPath id="5994a5b162"><path d="M 0.667969 0.65625 L 95.414062 0.65625 L 95.414062 95.402344 L 0.667969 95.402344 Z M 0.667969 0.65625 " clip-rule="nonzero"/></clipPath><clipPath id="d13dd49555"><path d="M 48.039062 0.65625 C 21.878906 0.65625 0.667969 21.867188 0.667969 48.027344 C 0.667969 74.191406 21.878906 95.402344 48.039062 95.402344 C 74.203125 95.402344 95.414062 74.191406 95.414062 48.027344 C 95.414062 21.867188 74.203125 0.65625 48.039062 0.65625 Z M 48.039062 0.65625 " clip-rule="nonzero"/></clipPath><clipPath id="5a79b52ea7"><rect x="0" width="96" y="0" height="96"/></clipPath><clipPath id="a30a6ad099"><path d="M 469.363281 908.769531 L 564.109375 908.769531 L 564.109375 1003.511719 L 469.363281 1003.511719 Z M 469.363281 908.769531 " clip-rule="nonzero"/></clipPath><clipPath id="b5cca0fb63"><path d="M 516.738281 908.769531 C 490.574219 908.769531 469.363281 929.976562 469.363281 956.140625 C 469.363281 982.304688 490.574219 1003.511719 516.738281 1003.511719 C 542.898438 1003.511719 564.109375 982.304688 564.109375 956.140625 C 564.109375 929.976562 542.898438 908.769531 516.738281 908.769531 Z M 516.738281 908.769531 " clip-rule="nonzero"/></clipPath><clipPath id="5122732a85"><path d="M 0.363281 0.769531 L 95.109375 0.769531 L 95.109375 95.511719 L 0.363281 95.511719 Z M 0.363281 0.769531 " clip-rule="nonzero"/></clipPath><clipPath id="a3c0cb4e2b"><path d="M 47.738281 0.769531 C 21.574219 0.769531 0.363281 21.976562 0.363281 48.140625 C 0.363281 74.304688 21.574219 95.511719 47.738281 95.511719 C 73.898438 95.511719 95.109375 74.304688 95.109375 48.140625 C 95.109375 21.976562 73.898438 0.769531 47.738281 0.769531 Z M 47.738281 0.769531 " clip-rule="nonzero"/></clipPath><clipPath id="d3a77dae89"><rect x="0" width="96" y="0" height="96"/></clipPath><clipPath id="85ea200908"><path d="M 671.503906 792.027344 L 766.25 792.027344 L 766.25 886.773438 L 671.503906 886.773438 Z M 671.503906 792.027344 " clip-rule="nonzero"/></clipPath><clipPath id="4811d87952"><path d="M 718.878906 792.027344 C 692.714844 792.027344 671.503906 813.238281 671.503906 839.402344 C 671.503906 865.5625 692.714844 886.773438 718.878906 886.773438 C 745.039062 886.773438 766.25 865.5625 766.25 839.402344 C 766.25 813.238281 745.039062 792.027344 718.878906 792.027344 Z M 718.878906 792.027344 " clip-rule="nonzero"/></clipPath><clipPath id="a826feb721"><path d="M 0.503906 0.0273438 L 95.25 0.0273438 L 95.25 94.773438 L 0.503906 94.773438 Z M 0.503906 0.0273438 " clip-rule="nonzero"/></clipPath><clipPath id="4ec4611d48"><path d="M 47.878906 0.0273438 C 21.714844 0.0273438 0.503906 21.238281 0.503906 47.402344 C 0.503906 73.5625 21.714844 94.773438 47.878906 94.773438 C 74.039062 94.773438 95.25 73.5625 95.25 47.402344 C 95.25 21.238281 74.039062 0.0273438 47.878906 0.0273438 Z M 47.878906 0.0273438 " clip-rule="nonzero"/></clipPath><clipPath id="9df0d38272"><rect x="0" width="96" y="0" height="95"/></clipPath><clipPath id="ac2a2fb3d8"><path d="M 569.8125 108 L 664.554688 108 L 664.554688 202.746094 L 569.8125 202.746094 Z M 569.8125 108 " clip-rule="nonzero"/></clipPath><clipPath id="1545c215b1"><path d="M 617.183594 108 C 591.019531 108 569.8125 129.210938 569.8125 155.371094 C 569.8125 181.535156 591.019531 202.746094 617.183594 202.746094 C 643.347656 202.746094 664.554688 181.535156 664.554688 155.371094 C 664.554688 129.210938 643.347656 108 617.183594 108 Z M 617.183594 108 " clip-rule="nonzero"/></clipPath><clipPath id="6289c4a631"><path d="M 0.8125 0 L 95.554688 0 L 95.554688 94.746094 L 0.8125 94.746094 Z M 0.8125 0 " clip-rule="nonzero"/></clipPath><clipPath id="397f0e4ce9"><path d="M 48.183594 0 C 22.019531 0 0.8125 21.210938 0.8125 47.371094 C 0.8125 73.535156 22.019531 94.746094 48.183594 94.746094 C 74.347656 94.746094 95.554688 73.535156 95.554688 47.371094 C 95.554688 21.210938 74.347656 0 48.183594 0 Z M 48.183594 0 " clip-rule="nonzero"/></clipPath><clipPath id="f6d338e3de"><rect x="0" width="96" y="0" height="95"/></clipPath><clipPath id="cb5ab7f643"><path d="M 506.839844 378.546875 L 601.585938 378.546875 L 601.585938 473.292969 L 506.839844 473.292969 Z M 506.839844 378.546875 " clip-rule="nonzero"/></clipPath><clipPath id="5548409aed"><path d="M 554.214844 378.546875 C 528.050781 378.546875 506.839844 399.757812 506.839844 425.921875 C 506.839844 452.082031 528.050781 473.292969 554.214844 473.292969 C 580.375 473.292969 601.585938 452.082031 601.585938 425.921875 C 601.585938 399.757812 580.375 378.546875 554.214844 378.546875 Z M 554.214844 378.546875 " clip-rule="nonzero"/></clipPath><clipPath id="7d914392a0"><path d="M 0.839844 0.546875 L 95.585938 0.546875 L 95.585938 95.292969 L 0.839844 95.292969 Z M 0.839844 0.546875 " clip-rule="nonzero"/></clipPath><clipPath id="08ac66489c"><path d="M 48.214844 0.546875 C 22.050781 0.546875 0.839844 21.757812 0.839844 47.921875 C 0.839844 74.082031 22.050781 95.292969 48.214844 95.292969 C 74.375 95.292969 95.585938 74.082031 95.585938 47.921875 C 95.585938 21.757812 74.375 0.546875 48.214844 0.546875 Z M 48.214844 0.546875 " clip-rule="nonzero"/></clipPath><clipPath id="96dc7d732a"><rect x="0" width="96" y="0" height="96"/></clipPath><clipPath id="55ee14f70a"><path d="M 678.558594 500.285156 L 773.304688 500.285156 L 773.304688 595.03125 L 678.558594 595.03125 Z M 678.558594 500.285156 " clip-rule="nonzero"/></clipPath><clipPath id="27f3a4d616"><path d="M 725.933594 500.285156 C 699.769531 500.285156 678.558594 521.496094 678.558594 547.660156 C 678.558594 573.820312 699.769531 595.03125 725.933594 595.03125 C 752.09375 595.03125 773.304688 573.820312 773.304688 547.660156 C 773.304688 521.496094 752.09375 500.285156 725.933594 500.285156 Z M 725.933594 500.285156 " clip-rule="nonzero"/></clipPath><clipPath id="a583341b75"><path d="M 0.558594 0.285156 L 95.304688 0.285156 L 95.304688 95.03125 L 0.558594 95.03125 Z M 0.558594 0.285156 " clip-rule="nonzero"/></clipPath><clipPath id="36d90af435"><path d="M 47.933594 0.285156 C 21.769531 0.285156 0.558594 21.496094 0.558594 47.660156 C 0.558594 73.820312 21.769531 95.03125 47.933594 95.03125 C 74.09375 95.03125 95.304688 73.820312 95.304688 47.660156 C 95.304688 21.496094 74.09375 0.285156 47.933594 0.285156 Z M 47.933594 0.285156 " clip-rule="nonzero"/></clipPath><clipPath id="82b69e3ddf"><rect x="0" width="96" y="0" height="96"/></clipPath><clipPath id="5f13a36275"><path d="M 735.105469 233.605469 L 829.851562 233.605469 L 829.851562 328.351562 L 735.105469 328.351562 Z M 735.105469 233.605469 " clip-rule="nonzero"/></clipPath><clipPath id="c36ecf860c"><path d="M 782.480469 233.605469 C 756.316406 233.605469 735.105469 254.816406 735.105469 280.976562 C 735.105469 307.140625 756.316406 328.351562 782.480469 328.351562 C 808.640625 328.351562 829.851562 307.140625 829.851562 280.976562 C 829.851562 254.816406 808.640625 233.605469 782.480469 233.605469 Z M 782.480469 233.605469 " clip-rule="nonzero"/></clipPath><clipPath id="3213720a6a"><path d="M 0.105469 0.605469 L 94.851562 0.605469 L 94.851562 95.351562 L 0.105469 95.351562 Z M 0.105469 0.605469 " clip-rule="nonzero"/></clipPath><clipPath id="c65bfdd599"><path d="M 47.480469 0.605469 C 21.316406 0.605469 0.105469 21.816406 0.105469 47.976562 C 0.105469 74.140625 21.316406 95.351562 47.480469 95.351562 C 73.640625 95.351562 94.851562 74.140625 94.851562 47.976562 C 94.851562 21.816406 73.640625 0.605469 47.480469 0.605469 Z M 47.480469 0.605469 " clip-rule="nonzero"/></clipPath><clipPath id="c484de8f70"><rect x="0" width="95" y="0" height="96"/></clipPath><clipPath id="f705ab545c"><path d="M 844.84375 612.246094 L 939.589844 612.246094 L 939.589844 706.992188 L 844.84375 706.992188 Z M 844.84375 612.246094 " clip-rule="nonzero"/></clipPath><clipPath id="7818df53fe"><path d="M 892.21875 612.246094 C 866.054688 612.246094 844.84375 633.457031 844.84375 659.617188 C 844.84375 685.78125 866.054688 706.992188 892.21875 706.992188 C 918.378906 706.992188 939.589844 685.78125 939.589844 659.617188 C 939.589844 633.457031 918.378906 612.246094 892.21875 612.246094 Z M 892.21875 612.246094 " clip-rule="nonzero"/></clipPath><clipPath id="f5a8606aab"><path d="M 0.84375 0.246094 L 95.589844 0.246094 L 95.589844 94.992188 L 0.84375 94.992188 Z M 0.84375 0.246094 " clip-rule="nonzero"/></clipPath><clipPath id="9704378d78"><path d="M 48.21875 0.246094 C 22.054688 0.246094 0.84375 21.457031 0.84375 47.617188 C 0.84375 73.78125 22.054688 94.992188 48.21875 94.992188 C 74.378906 94.992188 95.589844 73.78125 95.589844 47.617188 C 95.589844 21.457031 74.378906 0.246094 48.21875 0.246094 Z M 48.21875 0.246094 " clip-rule="nonzero"/></clipPath><clipPath id="1379a81c85"><rect x="0" width="96" y="0" height="95"/></clipPath><clipPath id="e0ce18f32f"><path d="M 905.738281 342.835938 L 1000.484375 342.835938 L 1000.484375 437.582031 L 905.738281 437.582031 Z M 905.738281 342.835938 " clip-rule="nonzero"/></clipPath><clipPath id="72f14ad303"><path d="M 953.109375 342.835938 C 926.949219 342.835938 905.738281 364.046875 905.738281 390.210938 C 905.738281 416.371094 926.949219 437.582031 953.109375 437.582031 C 979.273438 437.582031 1000.484375 416.371094 1000.484375 390.210938 C 1000.484375 364.046875 979.273438 342.835938 953.109375 342.835938 Z M 953.109375 342.835938 " clip-rule="nonzero"/></clipPath><clipPath id="50f8fd535b"><path d="M 0.738281 0.835938 L 95.484375 0.835938 L 95.484375 95.582031 L 0.738281 95.582031 Z M 0.738281 0.835938 " clip-rule="nonzero"/></clipPath><clipPath id="ad07528e0f"><path d="M 48.109375 0.835938 C 21.949219 0.835938 0.738281 22.046875 0.738281 48.210938 C 0.738281 74.371094 21.949219 95.582031 48.109375 95.582031 C 74.273438 95.582031 95.484375 74.371094 95.484375 48.210938 C 95.484375 22.046875 74.273438 0.835938 48.109375 0.835938 Z M 48.109375 0.835938 " clip-rule="nonzero"/></clipPath><clipPath id="ac14bb0222"><rect x="0" width="96" y="0" height="96"/></clipPath></defs><path fill="#000000" d="M 1013.960938 461.085938 C 1012.644531 462.171875 1008.910156 463.695312 1008.109375 466.164062 C 1004.566406 477.273438 1001.632812 488.59375 998.964844 499.949219 C 997.957031 504.273438 1000.449219 507.625 1004.824219 508.699219 C 1009.152344 509.75 1012.945312 508.066406 1014.21875 503.808594 C 1017.527344 492.8125 1020.554688 481.726562 1023.171875 470.554688 C 1024.3125 465.65625 1020.5625 461.519531 1013.960938 461.085938 Z M 1036.566406 409.894531 C 1035.285156 364.175781 1015.136719 333.632812 980.460938 311.691406 C 979.476562 311.066406 978.390625 310.566406 977.285156 310.199219 C 973.257812 308.851562 969.855469 309.898438 967.628906 313.492188 C 965.238281 317.378906 966.097656 321.027344 969.4375 323.988281 C 970.882812 325.261719 972.683594 326.136719 974.308594 327.195312 C 989.863281 337.265625 1002.316406 350.203125 1010.675781 366.824219 C 1021.386719 388.105469 1022.054688 410.246094 1016.3125 432.96875 C 1014.753906 439.171875 1017.101562 443.515625 1021.953125 444.574219 C 1026.957031 445.65625 1030.984375 442.957031 1032.191406 436.710938 C 1034.132812 426.59375 1035.535156 416.363281 1036.566406 409.894531 Z M 600.222656 431.269531 C 600.15625 407.789062 582.359375 384.832031 559.691406 378.953125 C 535.078125 372.585938 513.085938 387.839844 511.160156 412.621094 C 509.179688 438.054688 528.601562 463.902344 553.597656 469.105469 C 579.242188 474.441406 600.289062 457.351562 600.222656 431.269531 Z M 660.039062 163.808594 C 659.957031 140.308594 642.160156 117.351562 619.492188 111.507812 C 594.878906 105.148438 572.886719 120.417969 570.980469 145.191406 C 569.019531 170.640625 588.441406 196.464844 613.441406 201.667969 C 639.082031 206.984375 660.140625 189.882812 660.039062 163.808594 Z M 900.6875 704.785156 C 919.457031 704.910156 934.328125 693.390625 938.148438 675.742188 C 945.105469 643.574219 913.691406 609.363281 880.980469 613.480469 C 862.207031 615.847656 848.777344 630.09375 847.777344 648.691406 C 846.246094 677.417969 871.867188 704.582031 900.6875 704.785156 Z M 960.394531 437.335938 C 979.675781 437.503906 994.339844 425.816406 998.15625 407.246094 C 1004.675781 375.5625 972.421875 341.460938 940.332031 346.085938 C 921.699219 348.777344 908.644531 362.757812 907.605469 381.136719 C 905.980469 409.828125 931.585938 437.085938 960.394531 437.335938 Z M 767.953125 556.597656 C 768.003906 531.398438 748.117188 508.476562 721.972656 503.625 C 695.464844 498.707031 673.167969 519.8125 676.675781 546.496094 C 679.871094 570.800781 700.210938 591.132812 724.464844 594.277344 C 748.324219 597.367188 767.921875 580.398438 767.953125 556.597656 Z M 775.222656 235.578125 C 752.425781 235.285156 735.96875 251.75 736.277344 274.546875 C 736.652344 303.238281 764.035156 328.714844 792.652344 327.011719 C 811.808594 325.871094 826.671875 310.984375 827.730469 291.894531 C 829.324219 263.160156 803.957031 235.960938 775.222656 235.578125 Z M 461.355469 418 C 459.871094 406.378906 466.191406 389.574219 470.148438 372.460938 C 488.371094 293.671875 506.878906 214.945312 525.25 136.199219 C 528.832031 120.820312 530.257812 104.53125 536.417969 90.285156 C 541.855469 77.722656 546.355469 63.570312 558.34375 54.507812 C 570.703125 45.15625 584.191406 45.339844 598.988281 46.6875 C 609.449219 47.640625 616.527344 52.773438 624.230469 57.890625 C 744.824219 138.015625 865.332031 218.246094 985.953125 298.328125 C 1000.789062 308.183594 1015.785156 317.710938 1027.75 331.171875 C 1038.71875 343.527344 1047.277344 357.332031 1049.90625 373.769531 C 1051.253906 382.273438 1051.855469 391.550781 1049.972656 399.835938 C 1024.414062 511.609375 998.53125 623.316406 967.320312 733.699219 C 967.003906 734.824219 966.421875 735.925781 966.339844 737.066406 C 965.386719 749.398438 957.300781 754.640625 946.664062 758.5 C 916.597656 769.410156 888.171875 767.511719 860.925781 749.996094 C 758.21875 683.960938 655.378906 618.117188 552.675781 552.0625 C 528.71875 536.652344 506.867188 518.695312 489.445312 495.871094 C 473.335938 474.75 462.464844 451.550781 461.355469 418 Z M 558.085938 597.558594 C 557.566406 596.660156 556.925781 594.09375 555.273438 592.84375 C 544.128906 584.347656 532.859375 575.988281 521.414062 567.910156 C 517.597656 565.21875 513.414062 565.976562 510.535156 569.835938 C 507.652344 573.710938 508.167969 577.953125 511.878906 580.78125 C 523.023438 589.28125 534.261719 597.683594 545.847656 605.554688 C 551.257812 609.230469 557.96875 605.195312 558.085938 597.558594 Z M 518.847656 1042.976562 C 556.265625 1043.074219 581.40625 1035.308594 605.257812 1022.804688 C 610.265625 1020.167969 611.882812 1015.910156 609.941406 1011.699219 C 607.882812 1007.265625 603.3125 1005.890625 597.9375 1008.257812 C 594.71875 1009.675781 591.652344 1011.425781 588.441406 1012.824219 C 542.996094 1032.648438 499.167969 1033.496094 458.15625 1001.605469 C 453.835938 998.246094 449 998.644531 446.175781 1002.421875 C 443.074219 1006.582031 444 1010.5 447.507812 1013.941406 C 448.902344 1015.308594 450.4375 1016.535156 451.996094 1017.703125 C 474.859375 1034.75 500.660156 1042.816406 518.847656 1042.976562 Z M 412.484375 519.027344 C 384.847656 519.429688 356.25 529.683594 330.140625 547.539062 C 328.867188 548.402344 327.007812 549.429688 326.773438 550.628906 C 326.183594 553.8125 325.273438 557.597656 326.441406 560.289062 C 328.058594 564.035156 332.160156 564.792969 336.058594 563.082031 C 337.992188 562.242188 339.710938 560.859375 341.503906 559.699219 C 375.246094 537.976562 411.367188 528.191406 450.667969 540.96875 C 463.414062 545.113281 475.027344 552.972656 486.894531 559.582031 C 493.589844 563.308594 500.777344 561.449219 500.574219 554.824219 C 500.484375 551.589844 497.949219 547.429688 495.230469 545.429688 C 471.941406 528.265625 445.851562 519.027344 412.484375 519.027344 Z M 521.664062 999.496094 C 525.050781 999.019531 528.96875 998.746094 532.761719 997.914062 C 556.699219 992.667969 569.519531 969.921875 561.335938 947.421875 C 551.65625 920.789062 516.914062 905.960938 490.972656 917.378906 C 470.15625 926.542969 461.671875 948.6875 471.859375 969.078125 C 481.894531 989.160156 499.332031 997.96875 521.664062 999.496094 Z M 713.464844 795.925781 C 709.605469 796.445312 705.695312 796.726562 701.894531 797.535156 C 677.511719 802.695312 664.558594 826.167969 673.425781 848.960938 C 683.65625 875.242188 717.988281 889.371094 743.789062 877.917969 C 763.304688 869.257812 771.597656 849.160156 763.894531 829.246094 C 756.460938 810.046875 735.496094 796.320312 713.464844 795.925781 Z M 177.054688 748.996094 C 173.203125 749.539062 169.285156 749.832031 165.492188 750.671875 C 141.386719 756 128.625 779.1875 137.257812 801.804688 C 147.394531 828.363281 182.082031 842.582031 208.015625 830.828125 C 227.269531 822.09375 235.445312 802.277344 227.929688 782.558594 C 220.527344 763.144531 199.34375 749.3125 177.054688 748.996094 Z M 404.78125 608.238281 C 400.921875 608.773438 397.003906 609.054688 393.210938 609.878906 C 368.144531 615.316406 355.492188 639.839844 365.683594 663.054688 C 376.707031 688.164062 409.882812 701.28125 434.9375 690.445312 C 454.644531 681.917969 463.15625 661.429688 455.3125 641.398438 C 447.785156 622.199219 426.84375 608.589844 404.78125 608.238281 Z M 539.71875 1055.546875 C 505.808594 1054.8125 474.027344 1046.726562 445.449219 1027.847656 C 332.800781 953.425781 220.058594 879.136719 107.691406 804.28125 C 90.046875 792.527344 74.183594 778.105469 57.484375 764.933594 C 47.824219 757.316406 47.214844 747.128906 49.535156 736.277344 C 52.125 724.097656 59.746094 715.511719 69.664062 708.5 C 72.875 706.234375 75.316406 702.90625 78.265625 700.242188 C 80.269531 698.433594 82.433594 696.773438 84.703125 695.296875 C 177.304688 635.203125 269.921875 575.128906 362.542969 515.042969 C 365.160156 513.34375 367.726562 511.558594 370.328125 509.816406 C 374.40625 507.101562 378.015625 503.105469 383.832031 506.226562 C 385.050781 506.867188 387.25 505.949219 388.910156 505.441406 C 421.445312 495.480469 451.445312 501.316406 480.621094 518.085938 C 492.523438 524.929688 501.460938 534.757812 512.203125 542.59375 C 531.132812 556.390625 550.082031 570.261719 569.769531 582.929688 C 665.722656 644.683594 761.917969 706.058594 858.03125 767.570312 C 876.546875 786.714844 897.46875 804.746094 898.402344 834.105469 C 898.710938 843.964844 895.292969 853.984375 893.167969 863.847656 C 892.785156 865.597656 890.523438 867.171875 888.808594 868.382812 C 879.210938 875.09375 869.578125 881.746094 859.847656 888.289062 C 791.246094 934.402344 722.066406 979.613281 649.820312 1019.933594 C 629.871094 1031.0625 609.949219 1042.316406 587.742188 1048.652344 C 572.046875 1053.136719 556.082031 1055.5625 539.71875 1055.546875 Z M 220.300781 573.863281 C 228.976562 568.152344 237.082031 563.300781 244.464844 557.53125 C 245.832031 556.457031 245.375 550.753906 243.773438 548.8125 C 242.164062 546.855469 237.40625 545.386719 235.230469 546.363281 C 228.195312 549.53125 221.394531 553.496094 215.175781 558.074219 C 213.242188 559.5 212.25 564.167969 212.980469 566.726562 C 213.699219 569.25 217.167969 570.976562 220.300781 573.863281 Z M 209.507812 578.628906 C 209.5625 570.160156 202.613281 566.46875 196.394531 570.351562 C 171.394531 585.941406 146.503906 601.710938 121.664062 617.542969 C 116.953125 620.535156 115.878906 625.117188 118.253906 629.109375 C 120.746094 633.289062 125.546875 634.394531 130.515625 631.277344 C 155.304688 615.730469 180.046875 600.101562 204.679688 584.289062 C 207.046875 582.765625 208.515625 579.828125 209.507812 578.628906 Z M 444.890625 324.746094 C 450.9375 324.414062 452.277344 319.535156 453.417969 314.367188 C 462.78125 272.054688 472.167969 229.75 481.59375 187.457031 C 483.59375 178.46875 482.003906 173.726562 476.269531 172.558594 C 470.800781 171.441406 467.492188 174.925781 465.558594 183.65625 C 458.621094 214.90625 451.644531 246.148438 444.699219 277.398438 C 442.023438 289.410156 439.265625 301.390625 436.816406 313.441406 C 435.464844 320.085938 438.75 324.679688 444.890625 324.746094 Z M 194.292969 499.40625 C 194.601562 482.917969 185.972656 476.464844 172.621094 480.941406 C 169.519531 481.984375 166.46875 483.484375 163.734375 485.277344 C 147.8125 495.730469 137.085938 510.191406 131.550781 528.355469 C 130.324219 532.375 129.839844 536.808594 129.972656 541.027344 C 130.324219 552.3125 138.285156 558.464844 148.953125 554.890625 C 155.605469 552.65625 162.265625 549.113281 167.644531 544.628906 C 182.472656 532.265625 192.140625 516.609375 194.292969 499.40625 Z M 305.71875 335.273438 C 306.074219 318.785156 297.523438 312.285156 284.179688 316.695312 C 281.070312 317.710938 278.019531 319.203125 275.285156 320.996094 C 259.34375 331.414062 248.601562 345.851562 243.023438 364.007812 C 241.839844 367.859375 241.324219 372.058594 241.382812 376.09375 C 241.507812 388.007812 249.574219 394.324219 260.828125 390.53125 C 267.296875 388.355469 273.757812 384.863281 278.992188 380.496094 C 293.8125 368.132812 303.527344 352.503906 305.71875 335.273438 Z M 209.648438 296.746094 C 209.371094 313 217.765625 319.476562 230.84375 315.234375 C 234.671875 313.984375 238.414062 312.050781 241.742188 309.757812 C 256.6875 299.464844 266.949219 285.550781 272.214844 268.1875 C 273.5 263.96875 274.082031 259.351562 273.957031 254.957031 C 273.617188 243.707031 265.597656 237.613281 254.910156 241.222656 C 248.257812 243.472656 241.605469 247.015625 236.230469 251.507812 C 221.417969 263.886719 211.765625 279.550781 209.648438 296.746094 Z M 370.3125 187.140625 C 370.1875 202.726562 378.4375 209.070312 391.285156 205.011719 C 395.121094 203.808594 398.894531 201.933594 402.222656 199.660156 C 417.183594 189.398438 427.503906 175.527344 432.839844 158.171875 C 434.082031 154.144531 434.722656 149.761719 434.699219 145.542969 C 434.621094 133.613281 426.746094 127.847656 415.234375 130.832031 C 405.414062 133.363281 397.777344 139.375 391.050781 146.527344 C 379.738281 158.570312 371.671875 172.316406 370.3125 187.140625 Z M 383.183594 394.066406 C 383.457031 374.800781 371.253906 364.347656 354.398438 369.410156 C 331.992188 376.136719 311.703125 408.578125 315.488281 431.609375 C 318.28125 448.542969 330.992188 455.578125 347.011719 449.042969 C 366.269531 441.1875 382.875 415.964844 383.183594 394.066406 Z M 261.105469 204.992188 C 276 193.230469 290.90625 181.46875 305.800781 169.699219 C 313.152344 175.234375 314.96875 175.035156 322.605469 169.066406 C 369.21875 132.5625 415.867188 96.113281 462.574219 59.734375 C 464.796875 58.007812 467.707031 56.074219 470.28125 56.109375 C 479.777344 56.214844 489.464844 56.101562 498.699219 57.96875 C 509.09375 60.066406 517.113281 66.851562 518.339844 77.957031 C 519.238281 86.125 518.914062 94.84375 517.039062 102.832031 C 497.566406 185.929688 477.675781 268.9375 457.847656 351.953125 C 454.320312 366.742188 451.878906 382.003906 446.550781 396.140625 C 431.546875 435.953125 405.3125 467.164062 369.695312 490.363281 C 270.648438 554.863281 171.542969 619.292969 72.441406 683.703125 C 63.511719 689.503906 47.648438 686.988281 39.996094 679.027344 C 37.070312 675.976562 36.554688 673.207031 38.222656 669.125 C 81.933594 561.890625 125.339844 454.542969 169.21875 347.378906 C 180.824219 319.019531 192.691406 290.667969 209.796875 264.976562 C 221.882812 246.796875 235.464844 229.910156 253.96875 217.816406 C 258.9375 214.570312 261.746094 210.953125 261.105469 204.992188 " fill-opacity="1" fill-rule="evenodd"/><path fill="#efefef" d="M 1008.109375 466.164062 C 1004.566406 477.273438 1001.632812 488.59375 998.964844 499.949219 C 997.957031 504.273438 1000.449219 507.625 1004.824219 508.699219 C 1009.152344 509.75 1012.945312 508.066406 1014.21875 503.808594 C 1017.527344 492.8125 1020.554688 481.726562 1023.171875 470.554688 C 1024.3125 465.65625 1020.5625 461.519531 1013.960938 461.085938 C 1012.644531 462.171875 1008.910156 463.695312 1008.109375 466.164062 Z M 980.460938 311.691406 C 979.476562 311.066406 978.390625 310.566406 977.285156 310.199219 C 973.257812 308.851562 969.855469 309.898438 967.628906 313.492188 C 965.238281 317.378906 966.097656 321.027344 969.4375 323.988281 C 970.882812 325.261719 972.683594 326.136719 974.308594 327.195312 C 989.863281 337.265625 1002.316406 350.203125 1010.675781 366.824219 C 1021.386719 388.105469 1022.054688 410.246094 1016.3125 432.96875 C 1014.753906 439.171875 1017.101562 443.515625 1021.953125 444.574219 C 1026.957031 445.65625 1030.984375 442.957031 1032.191406 436.710938 C 1034.132812 426.59375 1035.535156 416.363281 1036.566406 409.894531 C 1035.285156 364.175781 1015.136719 333.632812 980.460938 311.691406 Z M 559.691406 378.953125 C 535.078125 372.585938 513.085938 387.839844 511.160156 412.621094 C 509.179688 438.054688 528.601562 463.902344 553.597656 469.105469 C 579.242188 474.441406 600.289062 457.351562 600.222656 431.269531 C 600.15625 407.789062 582.359375 384.832031 559.691406 378.953125 Z M 619.492188 111.507812 C 594.878906 105.148438 572.886719 120.417969 570.980469 145.191406 C 569.019531 170.640625 588.441406 196.464844 613.441406 201.667969 C 639.082031 206.984375 660.140625 189.882812 660.039062 163.808594 C 659.957031 140.308594 642.160156 117.351562 619.492188 111.507812 Z M 938.148438 675.742188 C 945.105469 643.574219 913.691406 609.363281 880.980469 613.480469 C 862.207031 615.847656 848.777344 630.09375 847.777344 648.691406 C 846.246094 677.417969 871.867188 704.582031 900.6875 704.785156 C 919.457031 704.910156 934.328125 693.390625 938.148438 675.742188 Z M 998.15625 407.246094 C 1004.675781 375.5625 972.421875 341.460938 940.332031 346.085938 C 921.699219 348.777344 908.644531 362.757812 907.605469 381.136719 C 905.980469 409.828125 931.585938 437.085938 960.394531 437.335938 C 979.675781 437.503906 994.339844 425.816406 998.15625 407.246094 Z M 721.972656 503.625 C 695.464844 498.707031 673.167969 519.8125 676.675781 546.496094 C 679.871094 570.800781 700.210938 591.132812 724.464844 594.277344 C 748.324219 597.367188 767.921875 580.398438 767.953125 556.597656 C 768.003906 531.398438 748.117188 508.476562 721.972656 503.625 Z M 736.277344 274.546875 C 736.652344 303.238281 764.035156 328.714844 792.652344 327.011719 C 811.808594 325.871094 826.671875 310.984375 827.730469 291.894531 C 829.324219 263.160156 803.957031 235.960938 775.222656 235.578125 C 752.425781 235.285156 735.96875 251.75 736.277344 274.546875 Z M 555.273438 592.84375 C 544.128906 584.347656 532.859375 575.988281 521.414062 567.910156 C 517.597656 565.21875 513.414062 565.976562 510.535156 569.835938 C 507.652344 573.710938 508.167969 577.953125 511.878906 580.78125 C 523.023438 589.28125 534.261719 597.683594 545.847656 605.554688 C 551.257812 609.230469 557.96875 605.195312 558.085938 597.558594 C 557.566406 596.660156 556.925781 594.09375 555.273438 592.84375 Z M 605.257812 1022.804688 C 610.265625 1020.167969 611.882812 1015.910156 609.941406 1011.699219 C 607.882812 1007.265625 603.3125 1005.890625 597.9375 1008.257812 C 594.71875 1009.675781 591.652344 1011.425781 588.441406 1012.824219 C 542.996094 1032.648438 499.167969 1033.496094 458.15625 1001.605469 C 453.835938 998.246094 449 998.644531 446.175781 1002.421875 C 443.074219 1006.582031 444 1010.5 447.507812 1013.941406 C 448.902344 1015.308594 450.4375 1016.535156 451.996094 1017.703125 C 474.859375 1034.75 500.660156 1042.816406 518.847656 1042.976562 C 556.265625 1043.074219 581.40625 1035.308594 605.257812 1022.804688 Z M 330.140625 547.539062 C 328.867188 548.402344 327.007812 549.429688 326.773438 550.628906 C 326.183594 553.8125 325.273438 557.597656 326.441406 560.289062 C 328.058594 564.035156 332.160156 564.792969 336.058594 563.082031 C 337.992188 562.242188 339.710938 560.859375 341.503906 559.699219 C 375.246094 537.976562 411.367188 528.191406 450.667969 540.96875 C 463.414062 545.113281 475.027344 552.972656 486.894531 559.582031 C 493.589844 563.308594 500.777344 561.449219 500.574219 554.824219 C 500.484375 551.589844 497.949219 547.429688 495.230469 545.429688 C 471.941406 528.265625 445.851562 519.027344 412.484375 519.027344 C 384.847656 519.429688 356.25 529.683594 330.140625 547.539062 Z M 532.761719 997.914062 C 556.699219 992.667969 569.519531 969.921875 561.335938 947.421875 C 551.65625 920.789062 516.914062 905.960938 490.972656 917.378906 C 470.15625 926.542969 461.671875 948.6875 471.859375 969.078125 C 481.894531 989.160156 499.332031 997.96875 521.664062 999.496094 C 525.050781 999.019531 528.96875 998.746094 532.761719 997.914062 Z M 701.894531 797.535156 C 677.511719 802.695312 664.558594 826.167969 673.425781 848.960938 C 683.65625 875.242188 717.988281 889.371094 743.789062 877.917969 C 763.304688 869.257812 771.597656 849.160156 763.894531 829.246094 C 756.460938 810.046875 735.496094 796.320312 713.464844 795.925781 C 709.605469 796.445312 705.695312 796.726562 701.894531 797.535156 Z M 165.492188 750.671875 C 141.386719 756 128.625 779.1875 137.257812 801.804688 C 147.394531 828.363281 182.082031 842.582031 208.015625 830.828125 C 227.269531 822.09375 235.445312 802.277344 227.929688 782.558594 C 220.527344 763.144531 199.34375 749.3125 177.054688 748.996094 C 173.203125 749.539062 169.285156 749.832031 165.492188 750.671875 Z M 393.210938 609.878906 C 368.144531 615.316406 355.492188 639.839844 365.683594 663.054688 C 376.707031 688.164062 409.882812 701.28125 434.9375 690.445312 C 454.644531 681.917969 463.15625 661.429688 455.3125 641.398438 C 447.785156 622.199219 426.84375 608.589844 404.78125 608.238281 C 400.921875 608.773438 397.003906 609.054688 393.210938 609.878906 Z M 244.464844 557.53125 C 245.832031 556.457031 245.375 550.753906 243.773438 548.8125 C 242.164062 546.855469 237.40625 545.386719 235.230469 546.363281 C 228.195312 549.53125 221.394531 553.496094 215.175781 558.074219 C 213.242188 559.5 212.25 564.167969 212.980469 566.726562 C 213.699219 569.25 217.167969 570.976562 220.300781 573.863281 C 228.976562 568.152344 237.082031 563.300781 244.464844 557.53125 Z M 196.394531 570.351562 C 171.394531 585.941406 146.503906 601.710938 121.664062 617.542969 C 116.953125 620.535156 115.878906 625.117188 118.253906 629.109375 C 120.746094 633.289062 125.546875 634.394531 130.515625 631.277344 C 155.304688 615.730469 180.046875 600.101562 204.679688 584.289062 C 207.046875 582.765625 208.515625 579.828125 209.507812 578.628906 C 209.5625 570.160156 202.613281 566.46875 196.394531 570.351562 Z M 453.417969 314.367188 C 462.78125 272.054688 472.167969 229.75 481.59375 187.457031 C 483.59375 178.46875 482.003906 173.726562 476.269531 172.558594 C 470.800781 171.441406 467.492188 174.925781 465.558594 183.65625 C 458.621094 214.90625 451.644531 246.148438 444.699219 277.398438 C 442.023438 289.410156 439.265625 301.390625 436.816406 313.441406 C 435.464844 320.085938 438.75 324.679688 444.890625 324.746094 C 450.9375 324.414062 452.277344 319.535156 453.417969 314.367188 Z M 172.621094 480.941406 C 169.519531 481.984375 166.46875 483.484375 163.734375 485.277344 C 147.8125 495.730469 137.085938 510.191406 131.550781 528.355469 C 130.324219 532.375 129.839844 536.808594 129.972656 541.027344 C 130.324219 552.3125 138.285156 558.464844 148.953125 554.890625 C 155.605469 552.65625 162.265625 549.113281 167.644531 544.628906 C 182.472656 532.265625 192.140625 516.609375 194.292969 499.40625 C 194.601562 482.917969 185.972656 476.464844 172.621094 480.941406 Z M 284.179688 316.695312 C 281.070312 317.710938 278.019531 319.203125 275.285156 320.996094 C 259.34375 331.414062 248.601562 345.851562 243.023438 364.007812 C 241.839844 367.859375 241.324219 372.058594 241.382812 376.09375 C 241.507812 388.007812 249.574219 394.324219 260.828125 390.53125 C 267.296875 388.355469 273.757812 384.863281 278.992188 380.496094 C 293.8125 368.132812 303.527344 352.503906 305.71875 335.273438 C 306.074219 318.785156 297.523438 312.285156 284.179688 316.695312 Z M 230.84375 315.234375 C 234.671875 313.984375 238.414062 312.050781 241.742188 309.757812 C 256.6875 299.464844 266.949219 285.550781 272.214844 268.1875 C 273.5 263.96875 274.082031 259.351562 273.957031 254.957031 C 273.617188 243.707031 265.597656 237.613281 254.910156 241.222656 C 248.257812 243.472656 241.605469 247.015625 236.230469 251.507812 C 221.417969 263.886719 211.765625 279.550781 209.648438 296.746094 C 209.371094 313 217.765625 319.476562 230.84375 315.234375 Z M 391.285156 205.011719 C 395.121094 203.808594 398.894531 201.933594 402.222656 199.660156 C 417.183594 189.398438 427.503906 175.527344 432.839844 158.171875 C 434.082031 154.144531 434.722656 149.761719 434.699219 145.542969 C 434.621094 133.613281 426.746094 127.847656 415.234375 130.832031 C 405.414062 133.363281 397.777344 139.375 391.050781 146.527344 C 379.738281 158.570312 371.671875 172.316406 370.3125 187.140625 C 370.1875 202.726562 378.4375 209.070312 391.285156 205.011719 Z M 354.398438 369.410156 C 331.992188 376.136719 311.703125 408.578125 315.488281 431.609375 C 318.28125 448.542969 330.992188 455.578125 347.011719 449.042969 C 366.269531 441.1875 382.875 415.964844 383.183594 394.066406 C 383.457031 374.800781 371.253906 364.347656 354.398438 369.410156 Z M 461.355469 418 C 462.464844 451.550781 473.335938 474.75 489.445312 495.871094 C 506.867188 518.695312 528.71875 536.652344 552.675781 552.0625 C 655.378906 618.117188 758.21875 683.960938 860.925781 749.996094 C 888.171875 767.511719 916.597656 769.410156 946.664062 758.5 C 957.300781 754.640625 965.386719 749.398438 966.339844 737.066406 C 966.421875 735.925781 967.003906 734.824219 967.320312 733.699219 C 998.53125 623.316406 1024.414062 511.609375 1049.972656 399.835938 C 1051.855469 391.550781 1051.253906 382.273438 1049.90625 373.769531 C 1047.277344 357.332031 1038.71875 343.527344 1027.75 331.171875 C 1015.785156 317.710938 1000.789062 308.183594 985.953125 298.328125 C 865.332031 218.246094 744.824219 138.015625 624.230469 57.890625 C 616.527344 52.773438 609.449219 47.640625 598.988281 46.6875 C 584.191406 45.339844 570.703125 45.15625 558.34375 54.507812 C 546.355469 63.570312 541.855469 77.722656 536.417969 90.285156 C 530.257812 104.53125 528.832031 120.820312 525.25 136.199219 C 506.878906 214.945312 488.371094 293.671875 470.148438 372.460938 C 466.191406 389.574219 459.871094 406.378906 461.355469 418 Z M 539.71875 1055.546875 C 556.082031 1055.5625 572.046875 1053.136719 587.742188 1048.652344 C 609.949219 1042.316406 629.871094 1031.0625 649.820312 1019.933594 C 722.066406 979.613281 791.246094 934.402344 859.847656 888.289062 C 869.578125 881.746094 879.210938 875.09375 888.808594 868.382812 C 890.523438 867.171875 892.785156 865.597656 893.167969 863.847656 C 895.292969 853.984375 898.710938 843.964844 898.402344 834.105469 C 897.46875 804.746094 876.546875 786.714844 858.03125 767.570312 C 761.917969 706.058594 665.722656 644.683594 569.769531 582.929688 C 550.082031 570.261719 531.132812 556.390625 512.203125 542.59375 C 501.460938 534.757812 492.523438 524.929688 480.621094 518.085938 C 451.445312 501.316406 421.445312 495.480469 388.910156 505.441406 C 387.25 505.949219 385.050781 506.867188 383.832031 506.226562 C 378.015625 503.105469 374.40625 507.101562 370.328125 509.816406 C 367.726562 511.558594 365.160156 513.34375 362.542969 515.042969 C 269.921875 575.128906 177.304688 635.203125 84.703125 695.296875 C 82.433594 696.773438 80.269531 698.433594 78.265625 700.242188 C 75.316406 702.90625 72.875 706.234375 69.664062 708.5 C 59.746094 715.511719 52.125 724.097656 49.535156 736.277344 C 47.214844 747.128906 47.824219 757.316406 57.484375 764.933594 C 74.183594 778.105469 90.046875 792.527344 107.691406 804.28125 C 220.058594 879.136719 332.800781 953.425781 445.449219 1027.847656 C 474.027344 1046.726562 505.808594 1054.8125 539.71875 1055.546875 Z M 261.105469 204.992188 C 261.746094 210.953125 258.9375 214.570312 253.96875 217.816406 C 235.464844 229.910156 221.882812 246.796875 209.796875 264.976562 C 192.691406 290.667969 180.824219 319.019531 169.21875 347.378906 C 125.339844 454.542969 81.933594 561.890625 38.222656 669.125 C 36.554688 673.207031 37.070312 675.976562 39.996094 679.027344 C 47.648438 686.988281 63.511719 689.503906 72.441406 683.703125 C 171.542969 619.292969 270.648438 554.863281 369.695312 490.363281 C 405.3125 467.164062 431.546875 435.953125 446.550781 396.140625 C 451.878906 382.003906 454.320312 366.742188 457.847656 351.953125 C 477.675781 268.9375 497.566406 185.929688 517.039062 102.832031 C 518.914062 94.84375 519.238281 86.125 518.339844 77.957031 C 517.113281 66.851562 509.09375 60.066406 498.699219 57.96875 C 489.464844 56.101562 479.777344 56.214844 470.28125 56.109375 C 467.707031 56.074219 464.796875 58.007812 462.574219 59.734375 C 415.867188 96.113281 369.21875 132.5625 322.605469 169.066406 C 314.96875 175.035156 313.152344 175.234375 305.800781 169.699219 C 304.816406 164.382812 306.632812 160.496094 310.996094 157.121094 C 363.816406 116.175781 416 74.378906 469.457031 34.300781 C 515.347656 -0.0898438 568.988281 0.558594 616.535156 32.550781 C 700.691406 89.183594 785.066406 145.484375 869.5 201.71875 C 913.746094 231.175781 958.234375 260.277344 1002.722656 289.367188 C 1024.265625 303.457031 1043.542969 319.679688 1056.03125 342.710938 C 1066.941406 362.824219 1071.109375 383.90625 1065.601562 406.636719 C 1044.828125 492.289062 1024.898438 578.164062 1003.308594 663.613281 C 992.886719 704.867188 981.199219 745.972656 966.988281 786.050781 C 950.035156 833.871094 918.597656 871.058594 875.128906 898.167969 C 842.46875 918.53125 810.902344 940.644531 778.53125 961.492188 C 730.21875 992.609375 681.386719 1022.917969 630.179688 1049.136719 C 569.863281 1080.003906 509.203125 1079.976562 448.976562 1049.117188 C 434.78125 1041.851562 421.695312 1032.339844 408.316406 1023.527344 C 314.9375 962.042969 221.460938 900.734375 128.40625 838.773438 C 103.234375 822.011719 78.902344 803.863281 55.101562 785.175781 C 38.503906 772.144531 25.835938 755.28125 17.800781 735.492188 C 10.171875 716.71875 8.839844 697.980469 16.75 678.535156 C 58.785156 575.171875 100.023438 471.480469 142.453125 368.285156 C 156.546875 334 172.269531 300.253906 189.265625 267.320312 C 202.4375 241.820312 220.96875 219.898438 245.226562 203.59375 C 252.277344 198.859375 255.0625 199.242188 261.105469 204.992188 " fill-opacity="1" fill-rule="evenodd"/><g clip-path="url(#f3a4b96e73)"><g clip-path="url(#f35775c534)"><g transform="matrix(1, 0, 0, 1, 362, 605)"><g clip-path="url(#8ca0329bc4)"><g clip-path="url(#f329d87846)"><g clip-path="url(#9fe84e77be)"><path fill="#cb0605" d="M 0.789062 0.535156 L 95.53125 0.535156 L 95.53125 95.277344 L 0.789062 95.277344 Z M 0.789062 0.535156 " fill-opacity="1" fill-rule="nonzero"/></g></g></g></g></g></g><g clip-path="url(#0b517fefe8)"><g clip-path="url(#edb2b143df)"><g transform="matrix(1, 0, 0, 1, 134, 744)"><g clip-path="url(#5a79b52ea7)"><g clip-path="url(#5994a5b162)"><g clip-path="url(#d13dd49555)"><path fill="#cb0605" d="M 0.667969 0.65625 L 95.414062 0.65625 L 95.414062 95.402344 L 0.667969 95.402344 Z M 0.667969 0.65625 " fill-opacity="1" fill-rule="nonzero"/></g></g></g></g></g></g><g clip-path="url(#a30a6ad099)"><g clip-path="url(#b5cca0fb63)"><g transform="matrix(1, 0, 0, 1, 469, 908)"><g clip-path="url(#d3a77dae89)"><g clip-path="url(#5122732a85)"><g clip-path="url(#a3c0cb4e2b)"><path fill="#cb0605" d="M 0.363281 0.769531 L 95.109375 0.769531 L 95.109375 95.511719 L 0.363281 95.511719 Z M 0.363281 0.769531 " fill-opacity="1" fill-rule="nonzero"/></g></g></g></g></g></g><g clip-path="url(#85ea200908)"><g clip-path="url(#4811d87952)"><g transform="matrix(1, 0, 0, 1, 671, 792)"><g clip-path="url(#9df0d38272)"><g clip-path="url(#a826feb721)"><g clip-path="url(#4ec4611d48)"><path fill="#cb0605" d="M 0.503906 0.0273438 L 95.25 0.0273438 L 95.25 94.773438 L 0.503906 94.773438 Z M 0.503906 0.0273438 " fill-opacity="1" fill-rule="nonzero"/></g></g></g></g></g></g><g clip-path="url(#ac2a2fb3d8)"><g clip-path="url(#1545c215b1)"><g transform="matrix(1, 0, 0, 1, 569, 108)"><g clip-path="url(#f6d338e3de)"><g clip-path="url(#6289c4a631)"><g clip-path="url(#397f0e4ce9)"><path fill="#016c9d" d="M 0.8125 0 L 95.554688 0 L 95.554688 94.746094 L 0.8125 94.746094 Z M 0.8125 0 " fill-opacity="1" fill-rule="nonzero"/></g></g></g></g></g></g><g clip-path="url(#cb5ab7f643)"><g clip-path="url(#5548409aed)"><g transform="matrix(1, 0, 0, 1, 506, 378)"><g clip-path="url(#96dc7d732a)"><g clip-path="url(#7d914392a0)"><g clip-path="url(#08ac66489c)"><path fill="#016c9d" d="M 0.839844 0.546875 L 95.585938 0.546875 L 95.585938 95.292969 L 0.839844 95.292969 Z M 0.839844 0.546875 " fill-opacity="1" fill-rule="nonzero"/></g></g></g></g></g></g><g clip-path="url(#55ee14f70a)"><g clip-path="url(#27f3a4d616)"><g transform="matrix(1, 0, 0, 1, 678, 500)"><g clip-path="url(#82b69e3ddf)"><g clip-path="url(#a583341b75)"><g clip-path="url(#36d90af435)"><path fill="#016c9d" d="M 0.558594 0.285156 L 95.304688 0.285156 L 95.304688 95.03125 L 0.558594 95.03125 Z M 0.558594 0.285156 " fill-opacity="1" fill-rule="nonzero"/></g></g></g></g></g></g><g clip-path="url(#5f13a36275)"><g clip-path="url(#c36ecf860c)"><g transform="matrix(1, 0, 0, 1, 735, 233)"><g clip-path="url(#c484de8f70)"><g clip-path="url(#3213720a6a)"><g clip-path="url(#c65bfdd599)"><path fill="#016c9d" d="M 0.105469 0.605469 L 94.851562 0.605469 L 94.851562 95.351562 L 0.105469 95.351562 Z M 0.105469 0.605469 " fill-opacity="1" fill-rule="nonzero"/></g></g></g></g></g></g><g clip-path="url(#f705ab545c)"><g clip-path="url(#7818df53fe)"><g transform="matrix(1, 0, 0, 1, 844, 612)"><g clip-path="url(#1379a81c85)"><g clip-path="url(#f5a8606aab)"><g clip-path="url(#9704378d78)"><path fill="#016c9d" d="M 0.84375 0.246094 L 95.589844 0.246094 L 95.589844 94.992188 L 0.84375 94.992188 Z M 0.84375 0.246094 " fill-opacity="1" fill-rule="nonzero"/></g></g></g></g></g></g><g clip-path="url(#e0ce18f32f)"><g clip-path="url(#72f14ad303)"><g transform="matrix(1, 0, 0, 1, 905, 342)"><g clip-path="url(#ac14bb0222)"><g clip-path="url(#50f8fd535b)"><g clip-path="url(#ad07528e0f)"><path fill="#016c9d" d="M 0.738281 0.835938 L 95.484375 0.835938 L 95.484375 95.582031 L 0.738281 95.582031 Z M 0.738281 0.835938 " fill-opacity="1" fill-rule="nonzero"/></g></g></g></g></g></g></svg>